<?xml version="1.0" encoding="UTF-8" standalone="no"?>
<!DOCTYPE svg PUBLIC "-//W3C//DTD SVG 1.1//EN" "http://www.w3.org/Graphics/SVG/1.1/DTD/svg11.dtd">
<svg width="100%" height="100%" viewBox="0 0 154 14" version="1.1" xmlns="http://www.w3.org/2000/svg" xmlns:xlink="http://www.w3.org/1999/xlink" xml:space="preserve" xmlns:serif="http://www.serif.com/" style="fill-rule:evenodd;clip-rule:evenodd;stroke-linejoin:round;stroke-miterlimit:2;">
    <path d="M145.192,12.291L145.192,4.216L147.625,4.216L147.625,5.634L147.476,5.634C147.734,5.127 148.108,4.739 148.595,4.47C149.083,4.192 149.635,4.052 150.252,4.052C150.879,4.052 151.401,4.172 151.819,4.41C152.247,4.639 152.56,5.002 152.759,5.5C152.968,5.997 153.073,6.624 153.073,7.381L153.073,12.291L150.595,12.291L150.595,7.47C150.595,7.102 150.55,6.813 150.461,6.604C150.371,6.386 150.232,6.226 150.043,6.127C149.864,6.017 149.64,5.963 149.371,5.963C149.033,5.963 148.734,6.037 148.476,6.187C148.227,6.336 148.028,6.54 147.879,6.798C147.739,7.057 147.67,7.361 147.67,7.709L147.67,12.291L145.192,12.291Z" style="fill:white;fill-rule:nonzero;"/>
    <path d="M139.032,12.455C138.405,12.455 137.863,12.336 137.405,12.097C136.947,11.858 136.589,11.54 136.331,11.142C136.082,10.744 135.957,10.301 135.957,9.813C135.957,9.296 136.102,8.863 136.39,8.515C136.679,8.157 137.156,7.888 137.823,7.709C138.49,7.53 139.405,7.44 140.569,7.44L141.495,7.44L141.495,8.769L140.614,8.769C140.166,8.769 139.798,8.793 139.51,8.843C139.221,8.883 138.992,8.943 138.823,9.022C138.654,9.102 138.535,9.206 138.465,9.336C138.395,9.455 138.36,9.599 138.36,9.769C138.36,10.057 138.465,10.291 138.674,10.47C138.893,10.649 139.196,10.739 139.584,10.739C139.883,10.739 140.156,10.679 140.405,10.56C140.654,10.44 140.853,10.266 141.002,10.037C141.151,9.798 141.226,9.52 141.226,9.201L141.226,7.082C141.226,6.644 141.107,6.336 140.868,6.157C140.639,5.978 140.266,5.888 139.748,5.888C139.281,5.888 138.803,5.958 138.316,6.097C137.838,6.236 137.38,6.445 136.943,6.724L136.256,5.037C136.544,4.838 136.893,4.669 137.301,4.53C137.719,4.381 138.151,4.266 138.599,4.187C139.057,4.097 139.495,4.052 139.913,4.052C140.719,4.052 141.39,4.172 141.928,4.41C142.475,4.649 142.883,5.007 143.151,5.485C143.43,5.963 143.569,6.58 143.569,7.336L143.569,12.291L141.256,12.291L141.256,10.679L141.39,10.679C141.311,11.037 141.166,11.351 140.957,11.619C140.758,11.888 140.495,12.097 140.166,12.246C139.848,12.385 139.47,12.455 139.032,12.455Z" style="fill:white;fill-rule:nonzero;"/>
    <path d="M132.072,3.112L132.072,0.933L134.758,0.933L134.758,3.112L132.072,3.112ZM132.176,12.291L132.176,4.217L134.654,4.217L134.654,12.291L132.176,12.291Z" style="fill:white;fill-rule:nonzero;"/>
    <path d="M125.559,12.455C124.853,12.455 124.236,12.291 123.708,11.962C123.191,11.624 122.783,11.142 122.485,10.515C122.186,9.888 122.037,9.132 122.037,8.246C122.037,7.36 122.186,6.609 122.485,5.992C122.783,5.366 123.196,4.888 123.723,4.56C124.251,4.221 124.863,4.052 125.559,4.052C126.176,4.052 126.728,4.196 127.216,4.485C127.713,4.764 128.057,5.152 128.246,5.649L128.052,5.649L128.052,1.769L130.529,1.769L130.529,12.291L128.096,12.291L128.096,10.798L128.261,10.798C128.072,11.316 127.728,11.724 127.231,12.022C126.743,12.311 126.186,12.455 125.559,12.455ZM126.305,10.589C126.863,10.589 127.295,10.4 127.604,10.022C127.922,9.634 128.082,9.037 128.082,8.231C128.082,7.425 127.922,6.838 127.604,6.47C127.295,6.092 126.863,5.903 126.305,5.903C125.758,5.903 125.325,6.092 125.007,6.47C124.698,6.838 124.544,7.425 124.544,8.231C124.544,9.037 124.698,9.634 125.007,10.022C125.325,10.4 125.758,10.589 126.305,10.589Z" style="fill:white;fill-rule:nonzero;"/>
    <path d="M116.085,12.291L116.085,4.216L118.518,4.216L118.518,6.171L118.338,6.171C118.468,5.505 118.761,5.002 119.219,4.664C119.677,4.326 120.264,4.127 120.98,4.067L121.682,4.007L121.831,6.082L120.547,6.216C119.871,6.276 119.378,6.45 119.07,6.739C118.771,7.017 118.622,7.435 118.622,7.992L118.622,12.291L116.085,12.291Z" style="fill:white;fill-rule:nonzero;"/>
    <path d="M109.925,12.455C109.298,12.455 108.755,12.336 108.298,12.097C107.84,11.858 107.482,11.54 107.223,11.142C106.974,10.744 106.85,10.301 106.85,9.813C106.85,9.296 106.994,8.863 107.283,8.515C107.571,8.157 108.049,7.888 108.716,7.709C109.382,7.53 110.298,7.44 111.462,7.44L112.387,7.44L112.387,8.769L111.507,8.769C111.059,8.769 110.691,8.793 110.402,8.843C110.114,8.883 109.885,8.943 109.716,9.022C109.547,9.102 109.427,9.206 109.357,9.336C109.288,9.455 109.253,9.599 109.253,9.769C109.253,10.057 109.357,10.291 109.566,10.47C109.785,10.649 110.089,10.739 110.477,10.739C110.775,10.739 111.049,10.679 111.298,10.56C111.547,10.44 111.746,10.266 111.895,10.037C112.044,9.798 112.119,9.52 112.119,9.201L112.119,7.082C112.119,6.644 111.999,6.336 111.76,6.157C111.532,5.978 111.158,5.888 110.641,5.888C110.173,5.888 109.696,5.958 109.208,6.097C108.731,6.236 108.273,6.445 107.835,6.724L107.148,5.037C107.437,4.838 107.785,4.669 108.193,4.53C108.611,4.381 109.044,4.266 109.492,4.187C109.949,4.097 110.387,4.052 110.805,4.052C111.611,4.052 112.283,4.172 112.82,4.41C113.367,4.649 113.775,5.007 114.044,5.485C114.323,5.963 114.462,6.58 114.462,7.336L114.462,12.291L112.149,12.291L112.149,10.679L112.283,10.679C112.203,11.037 112.059,11.351 111.85,11.619C111.651,11.888 111.387,12.097 111.059,12.246C110.741,12.385 110.362,12.455 109.925,12.455Z" style="fill:white;fill-rule:nonzero;"/>
    <path d="M100.673,12.455C100.016,12.455 99.469,12.336 99.031,12.097C98.603,11.858 98.285,11.495 98.076,11.007C97.867,10.51 97.763,9.883 97.763,9.127L97.763,4.216L100.24,4.216L100.24,9.052C100.24,9.4 100.285,9.689 100.374,9.918C100.474,10.137 100.613,10.296 100.792,10.395C100.971,10.495 101.195,10.545 101.464,10.545C101.772,10.545 102.051,10.475 102.3,10.336C102.549,10.196 102.738,9.997 102.867,9.739C103.006,9.47 103.076,9.157 103.076,8.798L103.076,4.216L105.554,4.216L105.554,12.291L103.136,12.291L103.136,10.858L103.33,10.858C103.071,11.365 102.713,11.758 102.255,12.037C101.807,12.316 101.28,12.455 100.673,12.455Z" style="fill:white;fill-rule:nonzero;"/>
    <path d="M91.839,12.455C90.555,12.455 89.461,12.236 88.555,11.798C87.66,11.351 86.973,10.724 86.495,9.918C86.018,9.112 85.779,8.162 85.779,7.067C85.779,5.953 86.023,4.988 86.51,4.172C86.998,3.356 87.699,2.724 88.615,2.276C89.53,1.828 90.62,1.604 91.884,1.604C92.431,1.604 92.958,1.654 93.466,1.754C93.973,1.843 94.441,1.973 94.869,2.142C95.296,2.311 95.665,2.52 95.973,2.769L95.137,4.739C94.64,4.41 94.132,4.172 93.615,4.022C93.097,3.873 92.53,3.798 91.913,3.798C90.779,3.798 89.918,4.077 89.331,4.634C88.754,5.191 88.466,6.002 88.466,7.067C88.466,8.132 88.759,8.938 89.346,9.485C89.933,10.032 90.799,10.306 91.943,10.306C92.321,10.306 92.709,10.271 93.107,10.201C93.515,10.132 93.923,10.037 94.331,9.918L93.898,10.739L93.898,8.231L91.451,8.231L91.451,6.425L96.033,6.425L96.033,11.619C95.645,11.798 95.222,11.953 94.764,12.082C94.306,12.201 93.829,12.291 93.331,12.351C92.834,12.42 92.336,12.455 91.839,12.455Z" style="fill:white;fill-rule:nonzero;"/>
    <path d="M70.005,12.291L66.796,4.216L69.348,4.216L71.423,10.037L70.99,10.037L73.109,4.216L74.766,4.216L76.871,10.037L76.497,10.037L78.572,4.216L80.975,4.216L77.781,12.291L75.617,12.291L73.453,6.619L74.303,6.619L72.169,12.291L70.005,12.291Z" style="fill:white;fill-rule:nonzero;"/>
    <path d="M62.464,12.455C61.599,12.455 60.843,12.286 60.196,11.948C59.559,11.609 59.066,11.127 58.718,10.5C58.37,9.873 58.196,9.122 58.196,8.246C58.196,7.371 58.37,6.619 58.718,5.993C59.066,5.366 59.559,4.888 60.196,4.56C60.843,4.221 61.599,4.052 62.464,4.052C63.35,4.052 64.111,4.221 64.748,4.56C65.385,4.888 65.872,5.366 66.211,5.993C66.559,6.619 66.733,7.371 66.733,8.246C66.733,9.122 66.559,9.873 66.211,10.5C65.872,11.127 65.385,11.609 64.748,11.948C64.111,12.286 63.35,12.455 62.464,12.455ZM62.464,10.589C63.022,10.589 63.455,10.4 63.763,10.022C64.081,9.644 64.24,9.052 64.24,8.246C64.24,7.43 64.081,6.838 63.763,6.47C63.455,6.092 63.022,5.903 62.464,5.903C61.917,5.903 61.484,6.092 61.166,6.47C60.858,6.838 60.703,7.43 60.703,8.246C60.703,9.052 60.858,9.644 61.166,10.022C61.484,10.4 61.917,10.589 62.464,10.589Z" style="fill:white;fill-rule:nonzero;"/>
    <path d="M51.982,12.455C51.275,12.455 50.658,12.291 50.131,11.962C49.614,11.624 49.206,11.142 48.907,10.515C48.609,9.888 48.459,9.132 48.459,8.246C48.459,7.36 48.609,6.609 48.907,5.992C49.206,5.366 49.618,4.888 50.146,4.56C50.673,4.221 51.285,4.052 51.982,4.052C52.599,4.052 53.151,4.196 53.638,4.485C54.136,4.764 54.479,5.152 54.668,5.649L54.474,5.649L54.474,1.769L56.952,1.769L56.952,12.291L54.519,12.291L54.519,10.798L54.683,10.798C54.494,11.316 54.151,11.724 53.653,12.022C53.166,12.311 52.609,12.455 51.982,12.455ZM52.728,10.589C53.285,10.589 53.718,10.4 54.026,10.022C54.345,9.634 54.504,9.037 54.504,8.231C54.504,7.425 54.345,6.838 54.026,6.47C53.718,6.092 53.285,5.903 52.728,5.903C52.181,5.903 51.748,6.092 51.429,6.47C51.121,6.838 50.967,7.425 50.967,8.231C50.967,9.037 51.121,9.634 51.429,10.022C51.748,10.4 52.181,10.589 52.728,10.589Z" style="fill:white;fill-rule:nonzero;"/>
    <path d="M39.359,12.291L39.359,4.216L41.792,4.216L41.792,5.634L41.643,5.634C41.901,5.127 42.274,4.739 42.762,4.47C43.25,4.192 43.802,4.052 44.419,4.052C45.045,4.052 45.568,4.172 45.986,4.41C46.414,4.639 46.727,5.002 46.926,5.5C47.135,5.997 47.24,6.624 47.24,7.381L47.24,12.291L44.762,12.291L44.762,7.47C44.762,7.102 44.717,6.813 44.628,6.604C44.538,6.386 44.399,6.226 44.21,6.127C44.031,6.017 43.807,5.963 43.538,5.963C43.2,5.963 42.901,6.037 42.643,6.187C42.394,6.336 42.195,6.54 42.045,6.798C41.906,7.057 41.837,7.361 41.837,7.709L41.837,12.291L39.359,12.291Z" style="fill:white;fill-rule:nonzero;"/>
    <path d="M35.115,3.112L35.115,0.933L37.802,0.933L37.802,3.112L35.115,3.112ZM35.219,12.291L35.219,4.217L37.697,4.217L37.697,12.291L35.219,12.291Z" style="fill:white;fill-rule:nonzero;"/>
    <path d="M20.548,12.291L16.474,1.769L19.145,1.769L22.086,9.619L21.369,9.619L24.504,1.769L26.399,1.769L29.429,9.619L28.787,9.619L31.757,1.769L34.28,1.769L30.19,12.291L28.071,12.291L25.19,5.142L25.563,5.142L22.668,12.291L20.548,12.291Z" style="fill:white;fill-rule:nonzero;"/>
    <path d="M4.808,13.972C4.808,13.987 4.795,14 4.78,14C4.714,14 4.648,13.983 4.588,13.951C2.093,12.605 0.584,10.988 0.102,9.142C0.043,8.913 0.015,8.306 0.005,7.59C0.005,7.582 0.008,7.575 0.013,7.57C0.018,7.564 0.025,7.562 0.033,7.562L4.78,7.562C4.795,7.562 4.808,7.574 4.808,7.589L4.808,13.972Z" style="fill:rgb(142,188,203);"/>
    <path d="M11.773,7.562C11.78,7.562 11.787,7.564 11.792,7.57C11.798,7.575 11.8,7.582 11.8,7.59C11.787,8.147 11.759,8.613 11.709,8.901C11.37,10.817 9.843,12.515 7.169,13.951C7.126,13.974 7.08,13.989 7.034,13.996C7.026,13.996 7.018,13.994 7.012,13.989C7.006,13.984 7.003,13.976 7.003,13.968C7.002,13.508 7.002,8.028 7.002,7.589C7.002,7.574 7.015,7.562 7.03,7.562L11.773,7.562Z" style="fill:rgb(142,188,203);"/>
    <path d="M0.032,5.068C0.017,5.068 0.004,5.056 0.004,5.041C-0.008,4.082 0.009,2.943 0.021,2.254C0.023,2.14 0.091,2.037 0.196,1.991L4.652,0.033C4.702,0.011 4.754,0 4.807,0L4.807,5.04C4.807,5.048 4.805,5.055 4.799,5.06C4.794,5.065 4.787,5.068 4.78,5.068L0.032,5.068Z" style="fill:rgb(142,188,203);"/>
    <path d="M7.002,0C7.055,0 7.108,0.011 7.158,0.033L11.517,1.948C11.679,2.019 11.785,2.178 11.788,2.355C11.806,3.262 11.819,4.241 11.802,5.041C11.801,5.056 11.789,5.068 11.774,5.068L7.03,5.068C7.023,5.068 7.016,5.065 7.01,5.06C7.005,5.055 7.002,5.048 7.002,5.04L7.002,0Z" style="fill:rgb(142,188,203);"/>
</svg>
