<svg width="154" height="14" viewBox="0 0 154 14" fill="none" xmlns="http://www.w3.org/2000/svg">
<path d="M145.192 12.2909V4.21642H147.625V5.6343H147.476C147.734 5.12685 148.108 4.7388 148.595 4.47015C149.083 4.19155 149.635 4.05225 150.252 4.05225C150.879 4.05225 151.401 4.17165 151.819 4.41045C152.247 4.6393 152.56 5.00248 152.759 5.49998C152.968 5.99748 153.073 6.62433 153.073 7.38054V12.2909H150.595V7.47009C150.595 7.10194 150.55 6.81338 150.461 6.60443C150.371 6.38553 150.232 6.22633 150.043 6.12683C149.864 6.01738 149.64 5.96266 149.371 5.96266C149.033 5.96266 148.734 6.03728 148.476 6.18653C148.227 6.33578 148.028 6.53976 147.879 6.79846C147.739 7.05716 147.67 7.36064 147.67 7.70889V12.2909H145.192Z" fill="#0F2A3D"/>
<path d="M139.032 12.4551C138.405 12.4551 137.863 12.3357 137.405 12.0969C136.947 11.8581 136.589 11.5397 136.331 11.1417C136.082 10.7437 135.957 10.3009 135.957 9.81333C135.957 9.29592 136.102 8.8631 136.39 8.51484C136.679 8.15664 137.156 7.88799 137.823 7.70889C138.49 7.52979 139.405 7.44024 140.569 7.44024H141.495V8.76857H140.614C140.166 8.76857 139.798 8.79345 139.51 8.8432C139.221 8.883 138.992 8.9427 138.823 9.0223C138.654 9.1019 138.535 9.20637 138.465 9.33572C138.395 9.45512 138.36 9.5994 138.36 9.76855C138.36 10.0571 138.465 10.2909 138.674 10.47C138.893 10.6491 139.196 10.7387 139.584 10.7387C139.883 10.7387 140.156 10.679 140.405 10.5596C140.654 10.4402 140.853 10.2661 141.002 10.0372C141.151 9.7984 141.226 9.5198 141.226 9.2014V7.08204C141.226 6.64424 141.107 6.33578 140.868 6.15668C140.639 5.97758 140.266 5.88803 139.748 5.88803C139.281 5.88803 138.803 5.95768 138.316 6.09698C137.838 6.23628 137.38 6.44523 136.943 6.72383L136.256 5.0373C136.544 4.8383 136.893 4.66915 137.301 4.52985C137.719 4.3806 138.151 4.26617 138.599 4.18657C139.057 4.09702 139.495 4.05225 139.913 4.05225C140.719 4.05225 141.39 4.17165 141.928 4.41045C142.475 4.64925 142.883 5.00745 143.151 5.48505C143.43 5.96266 143.569 6.57956 143.569 7.33576V12.2909H141.256V10.679H141.39C141.311 11.0372 141.166 11.3506 140.957 11.6193C140.758 11.8879 140.495 12.0969 140.166 12.2461C139.848 12.3854 139.47 12.4551 139.032 12.4551Z" fill="#0F2A3D"/>
<path d="M132.072 3.11217V0.933105H134.758V3.11217H132.072ZM132.176 12.2911V4.21662H134.654V12.2911H132.176Z" fill="#0F2A3D"/>
<path d="M125.559 12.4549C124.853 12.4549 124.236 12.2907 123.708 11.9624C123.191 11.6241 122.783 11.1415 122.485 10.5146C122.186 9.8878 122.037 9.13159 122.037 8.24604C122.037 7.36048 122.186 6.60925 122.485 5.99235C122.783 5.3655 123.196 4.8879 123.723 4.55954C124.251 4.22124 124.863 4.05209 125.559 4.05209C126.176 4.05209 126.728 4.19637 127.216 4.48492C127.713 4.76352 128.057 5.15157 128.246 5.64907H128.052V1.76855H130.529V12.2907H128.096V10.7982H128.261C128.072 11.3156 127.728 11.7236 127.231 12.0221C126.743 12.3106 126.186 12.4549 125.559 12.4549ZM126.305 10.5893C126.863 10.5893 127.295 10.4002 127.604 10.0221C127.922 9.63407 128.082 9.03707 128.082 8.23111C128.082 7.42516 127.922 6.83811 127.604 6.46995C127.295 6.09185 126.863 5.9028 126.305 5.9028C125.758 5.9028 125.325 6.09185 125.007 6.46995C124.698 6.83811 124.544 7.42516 124.544 8.23111C124.544 9.03707 124.698 9.63407 125.007 10.0221C125.325 10.4002 125.758 10.5893 126.305 10.5893Z" fill="#0F2A3D"/>
<path d="M116.085 12.2907V4.21628H118.518V6.17146H118.338C118.468 5.50481 118.761 5.00233 119.219 4.66403C119.677 4.32573 120.264 4.12672 120.98 4.06702L121.682 4.00732L121.831 6.08191L120.547 6.21624C119.871 6.27594 119.378 6.45006 119.07 6.73861C118.771 7.01721 118.622 7.43512 118.622 7.99232V12.2907H116.085Z" fill="#0F2A3D"/>
<path d="M109.925 12.4551C109.298 12.4551 108.755 12.3357 108.298 12.0969C107.84 11.8581 107.482 11.5397 107.223 11.1417C106.974 10.7437 106.85 10.3009 106.85 9.81333C106.85 9.29592 106.994 8.8631 107.283 8.51484C107.571 8.15664 108.049 7.88799 108.716 7.70889C109.382 7.52979 110.298 7.44024 111.462 7.44024H112.387V8.76857H111.507C111.059 8.76857 110.691 8.79345 110.402 8.8432C110.114 8.883 109.885 8.9427 109.716 9.0223C109.547 9.1019 109.427 9.20637 109.357 9.33572C109.288 9.45512 109.253 9.5994 109.253 9.76855C109.253 10.0571 109.357 10.2909 109.566 10.47C109.785 10.6491 110.089 10.7387 110.477 10.7387C110.775 10.7387 111.049 10.679 111.298 10.5596C111.547 10.4402 111.746 10.2661 111.895 10.0372C112.044 9.7984 112.119 9.5198 112.119 9.2014V7.08204C112.119 6.64424 111.999 6.33578 111.76 6.15668C111.532 5.97758 111.158 5.88803 110.641 5.88803C110.173 5.88803 109.696 5.95768 109.208 6.09698C108.731 6.23628 108.273 6.44523 107.835 6.72383L107.148 5.0373C107.437 4.8383 107.785 4.66915 108.193 4.52985C108.611 4.3806 109.044 4.26617 109.492 4.18657C109.949 4.09702 110.387 4.05225 110.805 4.05225C111.611 4.05225 112.283 4.17165 112.82 4.41045C113.367 4.64925 113.775 5.00745 114.044 5.48505C114.323 5.96266 114.462 6.57956 114.462 7.33576V12.2909H112.149V10.679H112.283C112.203 11.0372 112.059 11.3506 111.85 11.6193C111.651 11.8879 111.387 12.0969 111.059 12.2461C110.741 12.3854 110.362 12.4551 109.925 12.4551Z" fill="#0F2A3D"/>
<path d="M100.673 12.4549C100.016 12.4549 99.469 12.3355 99.0311 12.0967C98.6033 11.8579 98.2849 11.4948 98.0759 11.0072C97.867 10.5097 97.7625 9.88286 97.7625 9.12666V4.21631H100.24V9.05203C100.24 9.40028 100.285 9.68884 100.374 9.91769C100.474 10.1366 100.613 10.2958 100.792 10.3953C100.971 10.4948 101.195 10.5445 101.464 10.5445C101.772 10.5445 102.051 10.4749 102.3 10.3356C102.549 10.1963 102.738 9.99729 102.867 9.73859C103.006 9.46993 103.076 9.15651 103.076 8.79831V4.21631H105.554V12.2908H103.136V10.858H103.33C103.071 11.3654 102.713 11.7584 102.255 12.037C101.807 12.3156 101.28 12.4549 100.673 12.4549Z" fill="#0F2A3D"/>
<path d="M91.8387 12.455C90.5551 12.455 89.4606 12.2361 88.5551 11.7983C87.6596 11.3506 86.973 10.7237 86.4954 9.91776C86.0178 9.1118 85.779 8.16157 85.779 7.06707C85.779 5.95266 86.0228 4.98751 86.5104 4.1716C86.9979 3.3557 87.6994 2.72387 88.6148 2.27612C89.5303 1.82837 90.6198 1.60449 91.8835 1.60449C92.4307 1.60449 92.9581 1.65424 93.4656 1.75374C93.973 1.84329 94.4407 1.97264 94.8686 2.1418C95.2964 2.31095 95.6646 2.5199 95.973 2.76865L95.1372 4.73876C94.6397 4.41041 94.1322 4.1716 93.6148 4.02235C93.0974 3.8731 92.5303 3.79848 91.9133 3.79848C90.779 3.79848 89.9183 4.07708 89.3312 4.63428C88.7541 5.19148 88.4656 6.00241 88.4656 7.06707C88.4656 8.13172 88.7591 8.93768 89.3462 9.48493C89.9332 10.0322 90.7989 10.3058 91.9432 10.3058C92.3213 10.3058 92.7094 10.271 93.1074 10.2013C93.5153 10.1317 93.9233 10.0372 94.3312 9.91776L93.8984 10.7386V8.23122H91.4507V6.42529H96.0327V11.6192C95.6447 11.7983 95.2218 11.9525 94.7641 12.0819C94.3064 12.2013 93.8288 12.2908 93.3312 12.3505C92.8337 12.4202 92.3362 12.455 91.8387 12.455Z" fill="#0F2A3D"/>
<path d="M70.0048 12.2908L66.7959 4.21631H69.3481L71.4227 10.0371H70.9899L73.1093 4.21631H74.766L76.8705 10.0371H76.4974L78.572 4.21631H80.975L77.7809 12.2908H75.6168L73.4526 6.61925H74.3033L72.169 12.2908H70.0048Z" fill="#0F2A3D"/>
<path d="M62.4644 12.4551C61.5988 12.4551 60.8425 12.2859 60.1958 11.9476C59.559 11.6093 59.0664 11.1267 58.7182 10.4999C58.3699 9.87303 58.1958 9.1218 58.1958 8.24619C58.1958 7.37059 58.3699 6.61936 58.7182 5.99251C59.0664 5.36565 59.559 4.88805 60.1958 4.5597C60.8425 4.2214 61.5988 4.05225 62.4644 4.05225C63.35 4.05225 64.1112 4.2214 64.748 4.5597C65.3848 4.88805 65.8724 5.36565 66.2107 5.99251C66.559 6.61936 66.7331 7.37059 66.7331 8.24619C66.7331 9.1218 66.559 9.87303 66.2107 10.4999C65.8724 11.1267 65.3848 11.6093 64.748 11.9476C64.1112 12.2859 63.35 12.4551 62.4644 12.4551ZM62.4644 10.5894C63.0216 10.5894 63.4545 10.4004 63.7629 10.0223C64.0813 9.64417 64.2405 9.05215 64.2405 8.24619C64.2405 7.43029 64.0813 6.83826 63.7629 6.47011C63.4545 6.09201 63.0216 5.90296 62.4644 5.90296C61.9172 5.90296 61.4843 6.09201 61.1659 6.47011C60.8575 6.83826 60.7032 7.43029 60.7032 8.24619C60.7032 9.05215 60.8575 9.64417 61.1659 10.0223C61.4843 10.4004 61.9172 10.5894 62.4644 10.5894Z" fill="#0F2A3D"/>
<path d="M51.9816 12.4549C51.2752 12.4549 50.6582 12.2907 50.1309 11.9624C49.6135 11.6241 49.2055 11.1415 48.907 10.5146C48.6085 9.8878 48.4592 9.13159 48.4592 8.24604C48.4592 7.36048 48.6085 6.60925 48.907 5.99235C49.2055 5.3655 49.6184 4.8879 50.1458 4.55954C50.6732 4.22124 51.2851 4.05209 51.9816 4.05209C52.5985 4.05209 53.1508 4.19637 53.6383 4.48492C54.1358 4.76352 54.4791 5.15157 54.6682 5.64907H54.4742V1.76855H56.9518V12.2907H54.5189V10.7982H54.6831C54.4941 11.3156 54.1508 11.7236 53.6533 12.0221C53.1657 12.3106 52.6085 12.4549 51.9816 12.4549ZM52.7279 10.5893C53.2851 10.5893 53.7179 10.4002 54.0264 10.0221C54.3448 9.63407 54.504 9.03707 54.504 8.23111C54.504 7.42516 54.3448 6.83811 54.0264 6.46995C53.7179 6.09185 53.2851 5.9028 52.7279 5.9028C52.1806 5.9028 51.7478 6.09185 51.4294 6.46995C51.1209 6.83811 50.9667 7.42516 50.9667 8.23111C50.9667 9.03707 51.1209 9.63407 51.4294 10.0221C51.7478 10.4002 52.1806 10.5893 52.7279 10.5893Z" fill="#0F2A3D"/>
<path d="M39.359 12.2909V4.21642H41.7918V5.6343H41.6426C41.9013 5.12685 42.2744 4.7388 42.762 4.47015C43.2495 4.19155 43.8018 4.05225 44.4187 4.05225C45.0455 4.05225 45.5679 4.17165 45.9858 4.41045C46.4137 4.6393 46.7271 5.00248 46.9261 5.49998C47.1351 5.99748 47.2396 6.62433 47.2396 7.38054V12.2909H44.762V7.47009C44.762 7.10194 44.7172 6.81338 44.6276 6.60443C44.5381 6.38553 44.3988 6.22633 44.2097 6.12683C44.0306 6.01738 43.8067 5.96266 43.5381 5.96266C43.1998 5.96266 42.9013 6.03728 42.6426 6.18653C42.3938 6.33578 42.1948 6.53976 42.0455 6.79846C41.9062 7.05716 41.8366 7.36064 41.8366 7.70889V12.2909H39.359Z" fill="#0F2A3D"/>
<path d="M35.115 3.11217V0.933105H37.8015V3.11217H35.115ZM35.2194 12.2911V4.21662H37.697V12.2911H35.2194Z" fill="#0F2A3D"/>
<path d="M20.5484 12.2907L16.4738 1.76855H19.1454L22.0857 9.61914H21.3693L24.5036 1.76855H26.3991L29.429 9.61914H28.7872L31.7573 1.76855H34.2797L30.1902 12.2907H28.0708L25.1902 5.14162H25.5633L22.6678 12.2907H20.5484Z" fill="#0F2A3D"/>
<path fill-rule="evenodd" clip-rule="evenodd" d="M4.80751 13.972C4.80751 13.9873 4.79521 13.9997 4.78 13.9998C4.71387 13.9995 4.64787 13.9831 4.58795 13.9509C2.09318 12.6055 0.584444 10.9884 0.102341 9.14155C0.0426893 8.91331 0.0151783 8.30614 0.00499394 7.58975C0.00486168 7.5822 0.00777148 7.57504 0.0130621 7.56974C0.0182204 7.56444 0.0253627 7.56152 0.0327695 7.56152C0.407739 7.56152 4.40728 7.56152 4.77974 7.56152C4.79508 7.56152 4.80751 7.57398 4.80751 7.58936C4.80751 8.02913 4.80751 13.5398 4.80751 13.972Z" fill="#8EBCCB"/>
<path fill-rule="evenodd" clip-rule="evenodd" d="M11.7725 7.56152C11.7799 7.56152 11.7872 7.56444 11.7923 7.56987C11.7976 7.57518 11.8004 7.58246 11.8003 7.59002C11.7872 8.14722 11.7594 8.61324 11.7085 8.90085C11.3697 10.8165 9.84275 12.5149 7.16903 13.9509C7.1263 13.974 7.08041 13.9888 7.03372 13.9956C7.02578 13.9965 7.01785 13.9942 7.0119 13.9888C7.00594 13.9837 7.0025 13.9761 7.0025 13.968C7.00237 13.508 7.00237 8.0278 7.00237 7.58936C7.00237 7.57398 7.01481 7.56152 7.03015 7.56152C7.40221 7.56152 11.3962 7.56152 11.7725 7.56152Z" fill="#8EBCCB"/>
<path fill-rule="evenodd" clip-rule="evenodd" d="M0.03194 5.06811C0.0168618 5.06811 0.00442892 5.05579 0.00429665 5.04068C-0.0081362 4.08187 0.00919042 2.94255 0.0210942 2.25439C0.0229459 2.13975 0.0914589 2.03663 0.196212 1.99051L4.65193 0.0326052C4.70153 0.0108684 4.75444 0 4.80748 0V5.04028C4.80748 5.04757 4.80457 5.05473 4.79928 5.0599C4.79412 5.0652 4.78711 5.06811 4.7797 5.06811C4.40698 5.06811 0.40228 5.06811 0.03194 5.06811Z" fill="#8EBCCB"/>
<path fill-rule="evenodd" clip-rule="evenodd" d="M7.00237 0C7.05528 0 7.10818 0.0108684 7.15765 0.0326052L11.5167 1.94756C11.6787 2.01874 11.7847 2.17779 11.7882 2.35513C11.8063 3.26197 11.8186 4.24053 11.8015 5.04081C11.8012 5.05592 11.7888 5.06811 11.7737 5.06811C11.4051 5.06811 7.40274 5.06811 7.03015 5.06811C7.02274 5.06811 7.01573 5.0652 7.01044 5.0599C7.00528 5.05473 7.00237 5.04757 7.00237 5.04028C7.00237 4.63762 7.00237 0 7.00237 0Z" fill="#8EBCCB"/>
</svg>
